<svg width="185" height="175" viewBox="0 0 185 175" fill="none" xmlns="http://www.w3.org/2000/svg">
<mask id="mask0_1_3" style="mask-type:luminance" maskUnits="userSpaceOnUse" x="0" y="0" width="185" height="175">
<path fill-rule="evenodd" clip-rule="evenodd" d="M4.52657 136.822H33.1797C33.9656 136.822 34.7068 137.025 35.3521 137.381L55.9896 117.465C55.4177 116.708 55.0776 115.767 55.0776 114.749V86.0963C55.0776 83.6067 57.115 81.5692 59.6046 81.5692H88.2573C90.748 81.5692 92.7844 83.6067 92.7844 86.0963V114.749C92.7844 115.614 92.5385 116.425 92.113 117.114L112.912 137.185C113.457 136.952 114.056 136.822 114.684 136.822H143.337C144.277 136.822 145.152 137.112 145.879 137.608L148.013 135.547C147.293 134.629 146.861 133.473 146.861 132.222V76.8916C146.861 73.6597 146.356 73.1097 144.205 71.8696L93.9281 42.7801C92.9234 42.1987 91.6672 42.1893 90.6401 42.7801L40.3625 71.6707C38.212 72.9097 37.7068 73.4608 37.7068 76.692V100.074C37.7068 103.047 35.2745 105.48 32.3016 105.48H5.49479C2.52135 105.48 0.0895827 103.047 0.0895827 100.074V90.4343V56.1879C0.0895827 56.1217 0.0911453 56.0556 0.0937493 55.99C0.198437 53.1083 2.8849 51.4587 5.44062 49.9807L91.463 0.219981H91.4636C91.7057 0.0799809 91.986 -6.05061e-06 92.2838 -6.05061e-06C92.6276 -6.05061e-06 92.9406 0.134651 93.238 0.306651L181.759 51.5015C183.501 52.3733 184.479 54.2769 184.479 56.1879V132.222C184.479 135.195 182.047 137.627 179.073 137.627H152.267C151.556 137.627 150.876 137.487 150.252 137.235L147.591 139.803C147.768 140.286 147.864 140.807 147.864 141.349V170.001C147.864 172.492 145.827 174.529 143.337 174.529H114.684C112.194 174.529 110.157 172.492 110.157 170.001V141.349C110.157 140.494 110.397 139.693 110.814 139.009L90.001 118.925C89.4636 119.15 88.8745 119.276 88.2573 119.276H59.6046C59.1526 119.276 58.7146 119.208 58.3016 119.083L37.2578 139.39C37.5453 139.984 37.7068 140.648 37.7068 141.349V170.001C37.7068 172.492 35.6693 174.529 33.1797 174.529H4.52657C2.03646 174.529 0 172.492 0 170.001V141.349C0 138.859 2.03646 136.822 4.52657 136.822ZM184.479 90.6332C184.479 67.6696 184.479 56.1879 184.479 56.1879V90.6332Z" fill="white"/>
</mask>
<g mask="url(#mask0_1_3)">
<path d="M4.52657 136.822H33.1797C33.9656 136.822 34.7068 137.025 35.3521 137.381L55.9896 117.465C55.4177 116.708 55.0776 115.767 55.0776 114.749V86.0963C55.0776 83.6067 57.115 81.5692 59.6046 81.5692H88.2573C90.748 81.5692 92.7844 83.6067 92.7844 86.0963V114.749C92.7844 115.614 92.5385 116.425 92.113 117.114L112.912 137.185C113.457 136.952 114.056 136.822 114.684 136.822H143.337C144.277 136.822 145.152 137.112 145.879 137.608L148.013 135.547C147.293 134.629 146.861 133.473 146.861 132.222V76.8916C146.861 73.6597 146.356 73.1097 144.205 71.8696L93.9281 42.7801C92.9234 42.1987 91.6672 42.1893 90.6401 42.7801L40.3625 71.6707C38.212 72.9097 37.7068 73.4608 37.7068 76.692V100.074C37.7068 103.047 35.2745 105.48 32.3016 105.48H5.49479C2.52135 105.48 0.0895827 103.047 0.0895827 100.074V90.4343V56.1879C0.0895827 56.1217 0.0911453 56.0556 0.0937493 55.99C0.198437 53.1083 2.8849 51.4587 5.44062 49.9807L91.463 0.219981H91.4636C91.7057 0.0799809 91.986 -6.05061e-06 92.2838 -6.05061e-06C92.6276 -6.05061e-06 92.9406 0.134651 93.238 0.306651L181.759 51.5015C183.501 52.3733 184.479 54.2769 184.479 56.1879V132.222C184.479 135.195 182.047 137.627 179.073 137.627H152.267C151.556 137.627 150.876 137.487 150.252 137.235L147.591 139.803C147.768 140.286 147.864 140.807 147.864 141.349V170.001C147.864 172.492 145.827 174.529 143.337 174.529H114.684C112.194 174.529 110.157 172.492 110.157 170.001V141.349C110.157 140.494 110.397 139.693 110.814 139.009L90.001 118.925C89.4636 119.15 88.8745 119.276 88.2573 119.276H59.6046C59.1526 119.276 58.7146 119.208 58.3016 119.083L37.2578 139.39C37.5453 139.984 37.7068 140.648 37.7068 141.349V170.001C37.7068 172.492 35.6693 174.529 33.1797 174.529H4.52657C2.03646 174.529 0 172.492 0 170.001V141.349C0 138.859 2.03646 136.822 4.52657 136.822ZM184.479 90.6332C184.479 67.6696 184.479 56.1879 184.479 56.1879V90.6332Z" fill="url(#paint0_linear_1_3)"/>
</g>
<defs>
<linearGradient id="paint0_linear_1_3" x1="-3.64097e-05" y1="155.676" x2="169.24" y2="44.2613" gradientUnits="userSpaceOnUse">
<stop stop-color="#0F2D3A"/>
<stop offset="1" stop-color="#2F8BA6"/>
</linearGradient>
</defs>
</svg>
