<svg width="492" height="128" viewBox="0 0 492 128" fill="none" xmlns="http://www.w3.org/2000/svg">
<mask id="principal_mask0" style="mask-type:luminance" maskUnits="userSpaceOnUse" x="0" y="0" width="135" height="128">
<path fill-rule="evenodd" clip-rule="evenodd" d="M3.3037 99.8559H24.2148C24.7886 99.8559 25.3295 100.005 25.8009 100.264L40.8623 85.73C40.4448 85.1768 40.1972 84.4889 40.1972 83.7469V62.8355C40.1972 61.0184 41.6831 59.5315 43.5011 59.5315H64.4125C66.2296 59.5315 67.7165 61.0184 67.7165 62.8355V83.7469C67.7165 84.3788 67.5362 84.97 67.2259 85.4729L82.4051 100.122C82.8036 99.9508 83.2401 99.8559 83.6993 99.8559H104.611C105.296 99.8559 105.935 100.068 106.465 100.43L108.023 98.926C107.497 98.2552 107.182 97.4116 107.182 96.4988V56.1175C107.182 53.7595 106.813 53.3572 105.244 52.4529L68.5505 31.2228C67.818 30.7986 66.9004 30.792 66.1508 31.2228L29.4574 52.3078C27.8877 53.212 27.5189 53.6143 27.5189 55.9723V73.0369C27.5189 75.207 25.7439 76.9814 23.5744 76.9814H4.01014C1.84073 76.9814 0.0656638 75.207 0.0656638 73.0369V66.001V41.0085C0.0656638 40.9592 0.0667112 40.9117 0.0682294 40.8633C0.144899 38.7606 2.10575 37.5565 3.97086 36.4776L66.7514 0.162254H66.7524C66.9279 0.0588226 67.1329 0 67.3502 0C67.6007 0 67.8303 0.099617 68.0467 0.223923L132.65 37.5878C133.922 38.2245 134.636 39.6137 134.636 41.0085V96.4988C134.636 98.6689 132.861 100.443 130.691 100.443H111.127C110.608 100.443 110.112 100.342 109.657 100.157L107.714 102.032C107.843 102.384 107.914 102.764 107.914 103.16V124.071C107.914 125.888 106.427 127.375 104.611 127.375H83.6993C81.8813 127.375 80.3944 125.888 80.3944 124.071V103.16C80.3944 102.536 80.5699 101.951 80.8736 101.452L65.6849 86.7947C65.2921 86.9588 64.8622 87.0508 64.4125 87.0508H43.5011C43.1709 87.0508 42.8512 87.0015 42.5494 86.9104L27.1917 101.73C27.4014 102.164 27.5189 102.648 27.5189 103.16V124.071C27.5189 125.888 26.0326 127.375 24.2148 127.375H3.3037C1.4867 127.375 0 125.888 0 124.071V103.16C0 101.343 1.4867 99.8559 3.3037 99.8559ZM134.636 66.1462C134.636 49.3871 134.636 41.0085 134.636 41.0085V66.1462Z" fill="white"/>
</mask>
<g mask="url(#principal_mask0)">
<path d="M2.95379 127.447V127.352H2.38447V127.258H2.0998V127.163H1.91003V127.068H1.72025V126.973H1.53048V126.878H1.3407V126.783H1.24582V126.688H1.15093V126.593H1.05604V126.498H0.961153V126.404H0.866265V126.309H0.771378V126.214H0.67649V126.119H0.581602V126.024H0.486715V125.834H0.391827V125.644H0.296939V125.455H0.202052V125.17H0.107164V124.885H0.0122766V124.411H-0.0826111V102.871H0.0122766V102.302H0.107164V102.017H0.202052V101.733H0.296939V101.543H0.391827V101.448H0.486715V101.258H0.581602V101.163H0.67649V100.974H0.771378V100.879H0.866265V100.784H0.961153V100.689H1.05604V100.594H1.24582V100.499H1.3407V100.404H1.43559V100.309H1.62537V100.215H1.81514V100.12H2.00492V100.025H2.28958V99.9299H2.57424V99.8351H24.8728V99.9299H25.2524V100.025H25.5371V100.12H25.7268V100.215H25.8217V100.12H25.9166V100.025H26.0115V99.9299H26.1064V99.8351H26.2013V99.7402H26.2962V99.6453H26.391V99.5504H26.4859V99.4555H26.5808V99.3606H26.6757V99.2657H26.7706V99.1708H26.8655V99.076H26.9604V98.9811H27.0553V98.8862H27.1501V98.7913H27.245V98.6964H27.3399V98.6015H27.4348V98.5066H27.5297V98.4117H27.7195V98.3169H27.8144V98.222H27.9092V98.1271H28.0041V98.0322H28.099V97.9373H28.1939V97.8424H28.2888V97.7475H28.3837V97.6526H28.4786V97.5578H28.5735V97.4629H28.6683V97.368H28.7632V97.2731H28.8581V97.1782H28.953V97.0833H29.0479V96.9884H29.1428V96.8935H29.2377V96.7987H29.3326V96.7038H29.4274V96.6089H29.5223V96.514H29.6172V96.4191H29.7121V96.3242H29.807V96.2293H29.9019V96.1344H29.9968V96.0396H30.0917V95.9447H30.1865V95.8498H30.2814V95.7549H30.4712V95.66H30.5661V95.5651H30.661V95.4702H30.7559V95.3753H30.8508V95.2805H30.9456V95.1856H31.0405V95.0907H31.1354V94.9958H31.2303V94.9009H31.3252V94.806H31.4201V94.7111H31.515V94.6162H31.6099V94.5214H31.7047V94.4265H31.7996V94.3316H31.8945V94.2367H31.9894V94.1418H32.0843V94.0469H32.1792V93.952H32.2741V93.8571H32.369V93.7622H32.4638V93.6674H32.5587V93.5725H32.6536V93.4776H32.7485V93.3827H32.8434V93.2878H32.9383V93.1929H33.1281V93.098H33.2229V93.0031H33.3178V92.9083H33.4127V92.8134H33.5076V92.7185H33.6025V92.6236H33.6974V92.5287H33.7923V92.4338H33.8872V92.3389H33.9821V92.244H34.0769V92.1492H34.1718V92.0543H34.2667V91.9594H34.3616V91.8645H34.4565V91.7696H34.5514V91.6747H34.6463V91.5798H34.7411V91.4849H34.836V91.3901H34.9309V91.2952H35.0258V91.2003H35.1207V91.1054H35.2156V91.0105H35.3105V90.9156H35.4054V90.8207H35.5003V90.7258H35.5951V90.631H35.69V90.5361H35.8798V90.4412H35.9747V90.3463H36.0696V90.2514H36.1645V90.1565H36.2594V90.0616H36.3542V89.9667H36.4491V89.8719H36.544V89.777H36.6389V89.6821H36.7338V89.5872H36.8287V89.4923H36.9236V89.3974H37.0185V89.3025H37.1133V89.2076H37.2082V89.1128H37.3031V89.0179H37.398V88.923H37.4929V88.8281H37.5878V88.7332H37.6827V88.6383H37.7776V88.5434H37.8724V88.4485H37.9673V88.3537H38.0622V88.2588H38.1571V88.1639H38.252V88.069H38.3469V87.9741H38.5367V87.8792H38.6315V87.7843H38.7264V87.6894H38.8213V87.5946H38.9162V87.4997H39.0111V87.4048H39.106V87.3099H39.2009V87.215H39.2958V87.1201H39.3906V87.0252H39.4855V86.9303H39.5804V86.8355H39.6753V86.7406H39.7702V86.6457H39.8651V86.5508H39.96V86.4559H40.0549V86.361H40.1497V86.2661H40.2446V86.1712H40.3395V86.0764H40.4344V85.9815H40.5293V85.8866H40.6242V85.7917H40.7191V85.6019H40.6242V85.4121H40.5293V85.1275H40.4344V84.9377H40.3395V84.7479H40.2446V84.2735H40.1497V62.2596H40.2446V61.88H40.3395V61.5953H40.4344V61.4056H40.5293V61.2158H40.6242V61.026H40.7191V60.8362H40.814V60.7414H40.9088V60.6465H41.0037V60.5516H41.0986V60.4567H41.1935V60.3618H41.2884V60.2669H41.3833V60.172H41.4782V60.0771H41.6679V59.9823H41.8577V59.8874H41.9526V59.7925H42.1424V59.6976H42.4271V59.6027H42.8066V59.5078H65.1052V59.6027H65.4847V59.6976H65.7694V59.7925H65.9592V59.8874H66.0541V59.9823H66.2439V60.0771H66.4336V60.172H66.5285V60.2669H66.6234V60.3618H66.7183V60.4567H66.8132V60.5516H66.9081V60.6465H67.0029V60.7414H67.0978V60.8362H67.1927V61.026H67.2876V61.2158H67.3825V61.4056H67.4774V61.5953H67.5723V61.88H67.6672V62.2596H67.762V84.2735H67.6672V84.7479H67.5723V84.9377H67.4774V85.2224H67.3825V85.4121H67.2876V85.507H67.3825V85.6019H67.4774V85.6968H67.5723V85.7917H67.6672V85.8866H67.762V85.9815H67.8569V86.0764H67.9518V86.1712H68.1416V86.2661H68.2365V86.361H68.3314V86.4559H68.4263V86.5508H68.5211V86.6457H68.616V86.7406H68.7109V86.8355H68.8058V86.9303H68.9007V87.0252H68.9956V87.1201H69.0905V87.215H69.1854V87.3099H69.2803V87.4048H69.3751V87.4997H69.47V87.5946H69.5649V87.6894H69.6598V87.7843H69.7547V87.8792H69.8496V87.9741H69.9445V88.069H70.0394V88.1639H70.1342V88.2588H70.2291V88.3537H70.324V88.4485H70.4189V88.5434H70.5138V88.6383H70.6087V88.7332H70.7036V88.8281H70.8933V88.923H70.9882V89.0179H71.0831V89.1128H71.178V89.2076H71.2729V89.3025H71.3678V89.3974H71.4627V89.4923H71.5576V89.5872H71.6524V89.6821H71.7473V89.777H71.8422V89.8719H71.9371V89.9667H72.032V90.0616H72.1269V90.1565H72.2218V90.2514H72.3167V90.3463H72.4115V90.4412H72.5064V90.5361H72.6013V90.631H72.6962V90.7258H72.7911V90.8207H72.886V90.9156H72.9809V91.0105H73.0758V91.1054H73.1706V91.2003H73.2655V91.2952H73.3604V91.3901H73.5502V91.4849H73.6451V91.5798H73.74V91.6747H73.8349V91.7696H73.9297V91.8645H74.0246V91.9594H74.1195V92.0543H74.2144V92.1492H74.3093V92.244H74.4042V92.3389H74.4991V92.4338H74.594V92.5287H74.6888V92.6236H74.7837V92.7185H74.8786V92.8134H74.9735V92.9083H75.0684V93.0031H75.1633V93.098H75.2582V93.1929H75.3531V93.2878H75.4479V93.3827H75.5428V93.4776H75.6377V93.5725H75.7326V93.6674H75.8275V93.7622H75.9224V93.8571H76.0173V93.952H76.1122V94.0469H76.3019V94.1418H76.3968V94.2367H76.4917V94.3316H76.5866V94.4265H76.6815V94.5214H76.7764V94.6162H76.8713V94.7111H76.9661V94.806H77.061V94.9009H77.1559V94.9958H77.2508V95.0907H77.3457V95.1856H77.4406V95.2805H77.5355V95.3753H77.6304V95.4702H77.7253V95.5651H77.8201V95.66H77.915V95.7549H78.0099V95.8498H78.1048V95.9447H78.1997V96.0396H78.2946V96.1344H78.3895V96.2293H78.4844V96.3242H78.5792V96.4191H78.6741V96.514H78.769V96.6089H78.8639V96.7038H79.0537V96.7987H79.1486V96.8935H79.2435V96.9884H79.3383V97.0833H79.4332V97.1782H79.5281V97.2731H79.623V97.368H79.7179V97.4629H79.8128V97.5578H79.9077V97.6526H80.0026V97.7475H80.0974V97.8424H80.1923V97.9373H80.2872V98.0322H80.3821V98.1271H80.477V98.222H80.5719V98.3169H80.6668V98.4117H80.7617V98.5066H80.8565V98.6015H80.9514V98.6964H81.0463V98.7913H81.1412V98.8862H81.2361V98.9811H81.331V99.076H81.4259V99.1708H81.5208V99.2657H81.7105V99.3606H81.8054V99.4555H81.9003V99.5504H81.9952V99.6453H82.0901V99.7402H82.185V99.8351H82.2799V99.9299H82.3747V100.025H82.6594V99.9299H82.9441V99.8351H105.243V99.9299H105.717V100.025H105.907V100.12H106.097V100.215H106.286V100.309H106.571V100.215H106.666V100.12H106.761V100.025H106.856V99.9299H106.951V99.8351H107.046V99.7402H107.14V99.6453H107.235V99.5504H107.33V99.4555H107.425V99.3606H107.52V99.2657H107.615V99.1708H107.71V99.076H107.805V98.9811H107.9V98.7913H107.805V98.6015H107.71V98.4117H107.615V98.222H107.52V98.0322H107.425V97.9373H107.33V97.5578H107.235V97.0833H107.14V55.143H107.046V54.4788H106.951V54.0992H106.856V53.9094H106.761V53.7197H106.666V53.6248H106.571V53.435H106.476V53.3401H106.381V53.2452H106.286V53.1503H106.097V53.0555H106.002V52.9606H105.907V52.8657H105.717V52.7708H105.527V52.6759H105.432V52.581H105.243V52.4861H105.053V52.3912H104.958V52.2964H104.768V52.2015H104.578V52.1066H104.389V52.0117H104.294V51.9168H104.104V51.8219H103.914V51.727H103.819V51.6321H103.63V51.5373H103.44V51.4424H103.25V51.3475H103.155V51.2526H102.965V51.1577H102.776V51.0628H102.586V50.9679H102.491V50.873H102.301V50.7782H102.111V50.6833H102.016V50.5884H101.827V50.4935H101.637V50.3986H101.447V50.3037H101.352V50.2088H101.162V50.1139H100.973V50.0191H100.783V49.9242H100.688V49.8293H100.498V49.7344H100.309V49.6395H100.214V49.5446H100.024V49.4497H99.8341V49.3548H99.6443V49.2599H99.5494V49.1651H99.3596V49.0702H99.1699V48.9753H98.9801V48.8804H98.8852V48.7855H98.6954V48.6906H98.5056V48.5957H98.4108V48.5008H98.221V48.406H98.0312V48.3111H97.8414V48.2162H97.7465V48.1213H97.5568V48.0264H97.367V47.9315H97.1772V47.8366H97.0823V47.7417H96.8926V47.6469H96.7028V47.552H96.6079V47.4571H96.4181V47.3622H96.2283V47.2673H96.0386V47.1724H95.9437V47.0775H95.7539V46.9827H95.5641V46.8878H95.3744V46.7929H95.2795V46.698H95.0897V46.6031H94.8999V46.5082H94.805V46.4133H94.6152V46.3184H94.4255V46.2235H94.2357V46.1287H94.1408V46.0338H93.951V45.9389H93.7613V45.844H93.5715V45.7491H93.4766V45.6542H93.2868V45.5593H93.097V45.4644H92.9073V45.3696H92.8124V45.2747H92.6226V45.1798H92.4328V45.0849H92.3379V44.99H92.1482V44.8951H91.9584V44.8002H91.7686V44.7053H91.6737V44.6105H91.484V44.5156H91.2942V44.4207H91.1044V44.3258H91.0095V44.2309H90.8197V44.136H90.63V44.0411H90.5351V43.9462H90.3453V43.8514H90.1555V43.7565H89.9658V43.6616H89.8709V43.5667H89.6811V43.4718H89.4913V43.3769H89.3015V43.282H89.2067V43.1871H89.0169V43.0923H88.8271V42.9974H88.7322V42.9025H88.5424V42.8076H88.3527V42.7127H88.1629V42.6178H88.068V42.5229H87.8782V42.428H87.6885V42.3332H87.4987V42.2383H87.4038V42.1434H87.214V42.0485H87.0242V41.9536H86.9294V41.8587H86.7396V41.7638H86.5498V41.6689H86.36V41.5741H86.2651V41.4792H86.0754V41.3843H85.8856V41.2894H85.6958V41.1945H85.6009V41.0996H85.4111V41.0047H85.2214V40.9098H85.1265V40.8149H84.9367V40.7201H84.7469V40.6252H84.5572V40.5303H84.4623V40.4354H84.2725V40.3405H84.0827V40.2456H83.8929V40.1507H83.7981V40.0558H83.6083V39.961H83.4185V39.8661H83.3236V39.7712H83.1338V39.6763H82.9441V39.5814H82.7543V39.4865H82.6594V39.3916H82.4696V39.2968H82.2799V39.2019H82.0901V39.107H81.9952V39.0121H81.8054V38.9172H81.6156V38.8223H81.5208V38.7274H81.331V38.6325H81.1412V38.5377H80.9514V38.4428H80.8565V38.3479H80.6668V38.253H80.477V38.1581H80.2872V38.0632H80.1923V37.9683H80.0026V37.8734H79.8128V37.7785H79.623V37.6837H79.5281V37.5888H79.3383V37.4939H79.1486V37.399H79.0537V37.3041H78.8639V37.2092H78.6741V37.1143H78.4844V37.0194H78.3895V36.9246H78.1997V36.8297H78.0099V36.7348H77.8201V36.6399H77.7253V36.545H77.5355V36.4501H77.3457V36.3552H77.2508V36.2603H77.061V36.1655H76.8713V36.0706H76.6815V35.9757H76.5866V35.8808H76.3968V35.7859H76.207V35.691H76.0173V35.5961H75.9224V35.5012H75.7326V35.4064H75.5428V35.3115H75.4479V35.2166H75.2582V35.1217H75.0684V35.0268H74.8786V34.9319H74.7837V34.837H74.594V34.7421H74.4042V34.6473H74.2144V34.5524H74.1195V34.4575H73.9297V34.3626H73.74V34.2677H73.6451V34.1728H73.4553V34.0779H73.2655V33.983H73.0758V33.8882H72.9809V33.7933H72.7911V33.6984H72.6013V33.6035H72.4115V33.5086H72.3167V33.4137H72.1269V33.3188H71.9371V33.2239H71.8422V33.1291H71.6524V33.0342H71.4627V32.9393H71.2729V32.8444H71.178V32.7495H70.9882V32.6546H70.7985V32.5597H70.6087V32.4648H70.5138V32.3699H70.324V32.2751H70.1342V32.1802H70.0394V32.0853H69.8496V31.9904H69.6598V31.8955H69.47V31.8006H69.3751V31.7057H69.1854V31.6109H68.9956V31.516H68.8058V31.4211H68.7109V31.3262H68.5211V31.2313H68.3314V31.1364H68.0467V31.0415H67.6672V30.9466H67.0978V31.0415H66.6234V31.1364H66.3387V31.2313H66.149V31.3262H66.0541V31.4211H65.8643V31.516H65.6745V31.6109H65.4847V31.7057H65.3899V31.8006H65.2001V31.8955H65.0103V31.9904H64.8205V32.0853H64.7256V32.1802H64.5359V32.2751H64.3461V32.3699H64.1563V32.4648H64.0614V32.5597H63.8717V32.6546H63.6819V32.7495H63.587V32.8444H63.3972V32.9393H63.2074V33.0342H63.0177V33.1291H62.9228V33.2239H62.733V33.3188H62.5432V33.4137H62.3535V33.5086H62.2586V33.6035H62.0688V33.6984H61.879V33.7933H61.6892V33.8882H61.5944V33.983H61.4046V34.0779H61.2148V34.1728H61.025V34.2677H60.9301V34.3626H60.7404V34.4575H60.5506V34.5524H60.3608V34.6473H60.2659V34.7421H60.0761V34.837H59.8864V34.9319H59.6966V35.0268H59.6017V35.1217H59.4119V35.2166H59.2222V35.3115H59.1273V35.4064H58.9375V35.5012H58.7477V35.5961H58.5579V35.691H58.4631V35.7859H58.2733V35.8808H58.0835V35.9757H57.8937V36.0706H57.7988V36.1655H57.6091V36.2603H57.4193V36.3552H57.2295V36.4501H57.1346V36.545H56.9449V36.6399H56.7551V36.7348H56.5653V36.8297H56.4704V36.9246H56.2806V37.0194H56.0909V37.1143H55.9011V37.2092H55.8062V37.3041H55.6164V37.399H55.4267V37.4939H55.2369V37.5888H55.142V37.6837H54.9522V37.7785H54.7624V37.8734H54.6676V37.9683H54.4778V38.0632H54.288V38.1581H54.0982V38.253H54.0033V38.3479H53.8136V38.4428H53.6238V38.5377H53.434V38.6325H53.3391V38.7274H53.1494V38.8223H52.9596V38.9172H52.7698V39.0121H52.6749V39.107H52.4851V39.2019H52.2954V39.2968H52.1056V39.3916H52.0107V39.4865H51.8209V39.5814H51.6311V39.6763H51.4414V39.7712H51.3465V39.8661H51.1567V39.961H50.9669V40.0558H50.8721V40.1507H50.6823V40.2456H50.4925V40.3405H50.3027V40.4354H50.2078V40.5303H50.0181V40.6252H49.8283V40.7201H49.6385V40.8149H49.5436V40.9098H49.3538V41.0047H49.1641V41.0996H48.9743V41.1945H48.8794V41.2894H48.6896V41.3843H48.4999V41.4792H48.3101V41.5741H48.2152V41.6689H48.0254V41.7638H47.8356V41.8587H47.6459V41.9536H47.551V42.0485H47.3612V42.1434H47.1714V42.2383H46.9817V42.3332H46.8868V42.428H46.697V42.5229H46.5072V42.6178H46.4123V42.7127H46.2226V42.8076H46.0328V42.9025H45.843V42.9974H45.7481V43.0923H45.5583V43.1871H45.3686V43.282H45.1788V43.3769H45.0839V43.4718H44.8941V43.5667H44.7044V43.6616H44.5146V43.7565H44.4197V43.8514H44.2299V43.9462H44.0401V44.0411H43.8504V44.136H43.7555V44.2309H43.5657V44.3258H43.3759V44.4207H43.1861V44.5156H43.0913V44.6105H42.9015V44.7053H42.7117V44.8002H42.5219V44.8951H42.4271V44.99H42.2373V45.0849H42.0475V45.1798H41.9526V45.2747H41.7628V45.3696H41.5731V45.4644H41.3833V45.5593H41.2884V45.6542H41.0986V45.7491H40.9088V45.844H40.7191V45.9389H40.6242V46.0338H40.4344V46.1287H40.2446V46.2235H40.0549V46.3184H39.96V46.4133H39.7702V46.5082H39.5804V46.6031H39.3906V46.698H39.2958V46.7929H39.106V46.8878H38.9162V46.9827H38.7264V47.0775H38.6315V47.1724H38.4418V47.2673H38.252V47.3622H38.1571V47.4571H37.9673V47.552H37.7776V47.6469H37.5878V47.7417H37.4929V47.8366H37.3031V47.9315H37.1133V48.0264H36.9236V48.1213H36.8287V48.2162H36.6389V48.3111H36.4491V48.406H36.2594V48.5008H36.1645V48.5957H35.9747V48.6906H35.7849V48.7855H35.5951V48.8804H35.5003V48.9753H35.3105V49.0702H35.1207V49.1651H34.9309V49.2599H34.836V49.3548H34.6463V49.4497H34.4565V49.5446H34.2667V49.6395H34.1718V49.7344H33.9821V49.8293H33.7923V49.9242H33.6974V50.0191H33.5076V50.1139H33.3178V50.2088H33.1281V50.3037H33.0332V50.3986H32.8434V50.4935H32.6536V50.5884H32.4638V50.6833H32.369V50.7782H32.1792V50.873H31.9894V50.9679H31.7996V51.0628H31.7047V51.1577H31.515V51.2526H31.3252V51.3475H31.1354V51.4424H31.0405V51.5373H30.8508V51.6321H30.661V51.727H30.4712V51.8219H30.3763V51.9168H30.1865V52.0117H29.9968V52.1066H29.807V52.2015H29.7121V52.2964H29.5223V52.3912H29.3326V52.4861H29.2377V52.581H29.0479V52.6759H28.8581V52.7708H28.7632V52.8657H28.6683V52.9606H28.4786V53.0555H28.3837V53.1503H28.2888V53.2452H28.1939V53.3401H28.099V53.5299H28.0041V53.6248H27.9092V53.8146H27.8144V54.0992H27.7195V54.4788H27.6246V55.5225H27.5297V73.9307H27.4348V74.2154H27.3399V74.5001H27.245V74.6898H27.1501V74.8796H27.0553V75.0694H26.9604V75.2592H26.8655V75.354H26.7706V75.4489H26.6757V75.6387H26.5808V75.7336H26.4859V75.8285H26.391V75.9234H26.2962V76.0183H26.2013V76.1132H26.0115V76.208H25.9166V76.3029H25.8217V76.3978H25.6319V76.4927H25.4422V76.5876H25.3473V76.6825H25.1575V76.7774H24.778V76.8722H24.4933V76.9671H23.924V77.062H3.61801V76.9671H3.04868V76.8722H2.76402V76.7774H2.47936V76.6825H2.28958V76.5876H2.0998V76.4927H1.91003V76.3978H1.72025V76.3029H1.62537V76.208H1.53048V76.1132H1.43559V76.0183H1.3407V75.9234H1.15093V75.8285H1.05604V75.6387H0.961153V75.5438H0.866265V75.4489H0.771378V75.354H0.67649V75.1643H0.581602V74.9745H0.486715V74.7847H0.391827V74.6898H0.296939V74.4052H0.202052V74.0256H0.107164V73.5512H0.0122766V40.4354H0.107164V40.0558H0.202052V39.7712H0.296939V39.5814H0.391827V39.2968H0.486715V39.2019H0.581602V39.0121H0.67649V38.9172H0.771378V38.7274H0.866265V38.6325H0.961153V38.5377H1.05604V38.4428H1.15093V38.3479H1.24582V38.253H1.3407V38.1581H1.43559V38.0632H1.53048V37.9683H1.72025V37.8734H1.81514V37.7785H1.91003V37.6837H2.00492V37.5888H2.19469V37.4939H2.28958V37.399H2.38447V37.3041H2.57424V37.2092H2.76402V37.1143H2.85891V37.0194H3.04868V36.9246H3.14357V36.8297H3.33334V36.7348H3.52312V36.6399H3.61801V36.545H3.80778V36.4501H3.99756V36.3552H4.09244V36.2603H4.28222V36.1655H4.472V36.0706H4.66177V35.9757H4.75666V35.8808H4.94643V35.7859H5.13621V35.691H5.32598V35.5961H5.42087V35.5012H5.61065V35.4064H5.80042V35.3115H5.89531V35.2166H6.08509V35.1217H6.27486V35.0268H6.46464V34.9319H6.55952V34.837H6.7493V34.7421H6.93907V34.6473H7.12885V34.5524H7.22374V34.4575H7.41351V34.3626H7.60329V34.2677H7.69817V34.1728H7.88795V34.0779H8.07773V33.983H8.2675V33.8882H8.36239V33.7933H8.55216V33.6984H8.74194V33.6035H8.93171V33.5086H9.0266V33.4137H9.21638V33.3188H9.40615V33.2239H9.59593V33.1291H9.69082V33.0342H9.88059V32.9393H10.0704V32.8444H10.1653V32.7495H10.355V32.6546H10.5448V32.5597H10.7346V32.4648H10.8295V32.3699H11.0192V32.2751H11.209V32.1802H11.3988V32.0853H11.4937V31.9904H11.6835V31.8955H11.8732V31.8006H11.9681V31.7057H12.1579V31.6109H12.3477V31.516H12.5374V31.4211H12.6323V31.3262H12.8221V31.2313H13.0119V31.1364H13.2017V31.0415H13.2965V30.9466H13.4863V30.8518H13.6761V30.7569H13.771V30.662H13.9608V30.5671H14.1505V30.4722H14.3403V30.3773H14.4352V30.2824H14.625V30.1875H14.8147V30.0927H15.0045V29.9978H15.0994V29.9029H15.2892V29.808H15.479V29.7131H15.5738V29.6182H15.7636V29.5233H15.9534V29.4284H16.1432V29.3335H16.2381V29.2387H16.4278V29.1438H16.6176V29.0489H16.8074V28.954H16.9023V28.8591H17.0921V28.7642H17.2818V28.6693H17.3767V28.5744H17.5665V28.4796H17.7563V28.3847H17.946V28.2898H18.0409V28.1949H18.2307V28.1H18.4205V28.0051H18.6103V27.9102H18.7051V27.8153H18.8949V27.7205H19.0847V27.6256H19.2745V27.5307H19.3694V27.4358H19.5591V27.3409H19.7489V27.246H19.8438V27.1511H20.0336V27.0562H20.2233V26.9614H20.4131V26.8665H20.508V26.7716H20.6978V26.6767H20.8876V26.5818H21.0773V26.4869H21.1722V26.392H21.362V26.2971H21.5518V26.2023H21.6467V26.1074H21.8364V26.0125H22.0262V25.9176H22.216V25.8227H22.3109V25.7278H22.5006V25.6329H22.6904V25.538H22.8802V25.4432H22.9751V25.3483H23.1649V25.2534H23.3546V25.1585H23.4495V25.0636H23.6393V24.9687H23.8291V24.8738H24.0188V24.7789H24.1137V24.6841H24.3035V24.5892H24.4933V24.4943H24.6831V24.3994H24.778V24.3045H24.9677V24.2096H25.1575V24.1147H25.2524V24.0198H25.4422V23.925H25.6319V23.8301H25.8217V23.7352H25.9166V23.6403H26.1064V23.5454H26.2962V23.4505H26.4859V23.3556H26.5808V23.2607H26.7706V23.1659H26.9604V23.071H27.0553V22.9761H27.245V22.8812H27.4348V22.7863H27.6246V22.6914H27.7195V22.5965H27.9092V22.5016H28.099V22.4068H28.2888V22.3119H28.3837V22.217H28.5735V22.1221H28.7632V22.0272H28.8581V21.9323H29.0479V21.8374H29.2377V21.7425H29.4274V21.6477H29.5223V21.5528H29.7121V21.4579H29.9019V21.363H30.0917V21.2681H30.1865V21.1732H30.3763V21.0783H30.5661V20.9834H30.7559V20.8885H30.8508V20.7937H31.0405V20.6988H31.2303V20.6039H31.3252V20.509H31.515V20.4141H31.7047V20.3192H31.8945V20.2243H31.9894V20.1294H32.1792V20.0346H32.369V19.9397H32.5587V19.8448H32.6536V19.7499H32.8434V19.655H33.0332V19.5601H33.1281V19.4652H33.3178V19.3703H33.5076V19.2755H33.6974V19.1806H33.7923V19.0857H33.9821V18.9908H34.1718V18.8959H34.3616V18.801H34.4565V18.7061H34.6463V18.6112H34.836V18.5164H34.9309V18.4215H35.1207V18.3266H35.3105V18.2317H35.5003V18.1368H35.5951V18.0419H35.7849V17.947H35.9747V17.8521H36.1645V17.7573H36.2594V17.6624H36.4491V17.5675H36.6389V17.4726H36.7338V17.3777H36.9236V17.2828H37.1133V17.1879H37.3031V17.093H37.398V16.9982H37.5878V16.9033H37.7776V16.8084H37.9673V16.7135H38.0622V16.6186H38.252V16.5237H38.4418V16.4288H38.5367V16.3339H38.7264V16.2391H38.9162V16.1442H39.106V16.0493H39.2009V15.9544H39.3906V15.8595H39.5804V15.7646H39.7702V15.6697H39.8651V15.5748H40.0549V15.48H40.2446V15.3851H40.4344V15.2902H40.5293V15.1953H40.7191V15.1004H40.9088V15.0055H41.0037V14.9106H41.1935V14.8157H41.3833V14.7209H41.5731V14.626H41.6679V14.5311H41.8577V14.4362H42.0475V14.3413H42.2373V14.2464H42.3322V14.1515H42.5219V14.0566H42.7117V13.9618H42.8066V13.8669H42.9964V13.772H43.1861V13.6771H43.3759V13.5822H43.4708V13.4873H43.6606V13.3924H43.8504V13.2975H44.0401V13.2027H44.135V13.1078H44.3248V13.0129H44.5146V12.918H44.6095V12.8231H44.7992V12.7282H44.989V12.6333H45.1788V12.5384H45.2737V12.4436H45.4635V12.3487H45.6532V12.2538H45.843V12.1589H45.9379V12.064H46.1277V11.9691H46.3174V11.8742H46.4123V11.7793H46.6021V11.6844H46.7919V11.5896H46.9817V11.4947H47.0765V11.3998H47.2663V11.3049H47.4561V11.21H47.6459V11.1151H47.7408V11.0202H47.9305V10.9253H48.1203V10.8305H48.2152V10.7356H48.405V10.6407H48.5947V10.5458H48.7845V10.4509H48.8794V10.356H49.0692V10.2611H49.259V10.1662H49.4487V10.0714H49.5436V9.97647H49.7334V9.88158H49.9232V9.7867H50.1129V9.69181H50.2078V9.59692H50.3976V9.50204H50.5874V9.40715H50.6823V9.31226H50.8721V9.21737H51.0618V9.12248H51.2516V9.0276H51.3465V8.93271H51.5363V8.83782H51.726V8.74294H51.9158V8.64805H52.0107V8.55316H52.2005V8.45827H52.3903V8.36338H52.4851V8.26849H52.6749V8.17361H52.8647V8.07872H53.0545V7.98383H53.1494V7.88895H53.3391V7.79406H53.5289V7.69917H53.7187V7.60428H53.8136V7.50939H54.0033V7.41451H54.1931V7.31962H54.288V7.22473H54.4778V7.12984H54.6676V7.03496H54.8573V6.94007H54.9522V6.84518H55.142V6.75029H55.3318V6.6554H55.5215V6.56052H55.6164V6.46563H55.8062V6.37074H55.996V6.27586H56.0909V6.18097H56.2806V6.08608H56.4704V5.9912H56.6602V5.8963H56.7551V5.80141H56.9449V5.70653H57.1346V5.61164H57.3244V5.51675H57.4193V5.42187H57.6091V5.32698H57.7988V5.23209H57.8937V5.1372H58.0835V5.04231H58.2733V4.94743H58.4631V4.85254H58.5579V4.75765H58.7477V4.66277H58.9375V4.56788H59.1273V4.47299H59.2222V4.37811H59.4119V4.28321H59.6017V4.18832H59.6966V4.09344H59.8864V3.99855H60.0761V3.90366H60.2659V3.80878H60.3608V3.71389H60.5506V3.619H60.7404V3.52412H60.9301V3.42922H61.025V3.33434H61.2148V3.23945H61.4046V3.14456H61.5944V3.04967H61.6892V2.95479H61.879V2.8599H62.0688V2.76501H62.1637V2.67013H62.3535V2.57523H62.5432V2.48035H62.733V2.38546H62.8279V2.29057H63.0177V2.19569H63.2074V2.1008H63.3972V2.00591H63.4921V1.91103H63.6819V1.81614H63.8717V1.72124H63.9665V1.62636H64.1563V1.53147H64.3461V1.43658H64.5359V1.3417H64.6308V1.24681H64.8205V1.15192H65.0103V1.05704H65.2001V0.962151H65.295V0.867256H65.4847V0.772369H65.6745V0.677483H65.7694V0.582596H65.9592V0.487709H66.149V0.392822H66.3387V0.297935H66.4336V0.203049H66.6234V0.108162H68.0467V0.203049H68.2365V0.297935H68.4263V0.392822H68.5211V0.487709H68.7109V0.582596H68.9007V0.677483H68.9956V0.772369H69.1854V0.867256H69.3751V0.962151H69.5649V1.05704H69.6598V1.15192H69.8496V1.24681H70.0394V1.3417H70.2291V1.43658H70.324V1.53147H70.5138V1.62636H70.7036V1.72124H70.8933V1.81614H70.9882V1.91103H71.178V2.00591H71.3678V2.1008H71.4627V2.19569H71.6524V2.29057H71.8422V2.38546H72.032V2.48035H72.1269V2.57523H72.3167V2.67013H72.5064V2.76501H72.6962V2.8599H72.7911V2.95479H72.9809V3.04967H73.1706V3.14456H73.2655V3.23945H73.4553V3.33434H73.6451V3.42922H73.8349V3.52412H73.9297V3.619H74.1195V3.71389H74.3093V3.80878H74.4991V3.90366H74.594V3.99855H74.7837V4.09344H74.9735V4.18832H75.0684V4.28321H75.2582V4.37811H75.4479V4.47299H75.6377V4.56788H75.7326V4.66277H75.9224V4.75765H76.1122V4.85254H76.3019V4.94743H76.3968V5.04231H76.5866V5.1372H76.7764V5.23209H76.8713V5.32698H77.061V5.42187H77.2508V5.51675H77.4406V5.61164H77.5355V5.70653H77.7253V5.80141H77.915V5.8963H78.1048V5.9912H78.1997V6.08608H78.3895V6.18097H78.5792V6.27586H78.769V6.37074H78.8639V6.46563H79.0537V6.56052H79.2435V6.6554H79.3383V6.75029H79.5281V6.84518H79.7179V6.94007H79.9077V7.03496H80.0026V7.12984H80.1923V7.22473H80.3821V7.31962H80.5719V7.41451H80.6668V7.50939H80.8565V7.60428H81.0463V7.69917H81.1412V7.79406H81.331V7.88895H81.5208V7.98383H81.7105V8.07872H81.8054V8.17361H81.9952V8.26849H82.185V8.36338H82.3747V8.45827H82.4696V8.55316H82.6594V8.64805H82.8492V8.74294H82.9441V8.83782H83.1338V8.93271H83.3236V9.0276H83.5134V9.12248H83.6083V9.21737H83.7981V9.31226H83.9878V9.40715H84.1776V9.50204H84.2725V9.59692H84.4623V9.69181H84.652V9.7867H84.7469V9.88158H84.9367V9.97647H85.1265V10.0714H85.3163V10.1662H85.4111V10.2611H85.6009V10.356H85.7907V10.4509H85.9805V10.5458H86.0754V10.6407H86.2651V10.7356H86.4549V10.8305H86.5498V10.9253H86.7396V11.0202H86.9294V11.1151H87.1191V11.21H87.214V11.3049H87.4038V11.3998H87.5936V11.4947H87.7833V11.5896H87.8782V11.6844H88.068V11.7793H88.2578V11.8742H88.4476V11.9691H88.5424V12.064H88.7322V12.1589H88.922V12.2538H89.0169V12.3487H89.2067V12.4436H89.3964V12.5384H89.5862V12.6333H89.6811V12.7282H89.8709V12.8231H90.0606V12.918H90.2504V13.0129H90.3453V13.1078H90.5351V13.2027H90.7249V13.2975H90.8197V13.3924H91.0095V13.4873H91.1993V13.5822H91.3891V13.6771H91.484V13.772H91.6737V13.8669H91.8635V13.9618H92.0533V14.0566H92.1482V14.1515H92.3379V14.2464H92.5277V14.3413H92.6226V14.4362H92.8124V14.5311H93.0022V14.626H93.1919V14.7209H93.2868V14.8157H93.4766V14.9106H93.6664V15.0055H93.8561V15.1004H93.951V15.1953H94.1408V15.2902H94.3306V15.3851H94.4255V15.48H94.6152V15.5748H94.805V15.6697H94.9948V15.7646H95.0897V15.8595H95.2795V15.9544H95.4692V16.0493H95.659V16.1442H95.7539V16.2391H95.9437V16.3339H96.1335V16.4288H96.3232V16.5237H96.4181V16.6186H96.6079V16.7135H96.7977V16.8084H96.8926V16.9033H97.0823V16.9982H97.2721V17.093H97.4619V17.1879H97.5568V17.2828H97.7465V17.3777H97.9363V17.4726H98.1261V17.5675H98.221V17.6624H98.4108V17.7573H98.6005V17.8521H98.6954V17.947H98.8852V18.0419H99.075V18.1368H99.2647V18.2317H99.3596V18.3266H99.5494V18.4215H99.7392V18.5164H99.929V18.6112H100.024V18.7061H100.214V18.801H100.403V18.8959H100.498V18.9908H100.688V19.0857H100.878V19.1806H101.068V19.2755H101.162V19.3703H101.352V19.4652H101.542V19.5601H101.732V19.655H101.827V19.7499H102.016V19.8448H102.206V19.9397H102.301V20.0346H102.491V20.1294H102.681V20.2243H102.87V20.3192H102.965V20.4141H103.155V20.509H103.345V20.6039H103.535V20.6988H103.63V20.7937H103.819V20.8885H104.009V20.9834H104.199V21.0783H104.294V21.1732H104.484V21.2681H104.673V21.363H104.768V21.4579H104.958V21.5528H105.148V21.6477H105.338V21.7425H105.432V21.8374H105.622V21.9323H105.812V22.0272H106.002V22.1221H106.097V22.217H106.286V22.3119H106.476V22.4068H106.571V22.5016H106.761V22.5965H106.951V22.6914H107.14V22.7863H107.235V22.8812H107.425V22.9761H107.615V23.071H107.805V23.1659H107.9V23.2607H108.089V23.3556H108.279V23.4505H108.374V23.5454H108.564V23.6403H108.754V23.7352H108.943V23.8301H109.038V23.925H109.228V24.0198H109.418V24.1147H109.607V24.2096H109.702V24.3045H109.892V24.3994H110.082V24.4943H110.177V24.5892H110.367V24.6841H110.556V24.7789H110.746V24.8738H110.841V24.9687H111.031V25.0636H111.221V25.1585H111.41V25.2534H111.505V25.3483H111.695V25.4432H111.885V25.538H112.075V25.6329H112.169V25.7278H112.359V25.8227H112.549V25.9176H112.644V26.0125H112.834V26.1074H113.023V26.2023H113.213V26.2971H113.308V26.392H113.498V26.4869H113.688V26.5818H113.877V26.6767H113.972V26.7716H114.162V26.8665H114.352V26.9614H114.447V27.0562H114.637V27.1511H114.826V27.246H115.016V27.3409H115.111V27.4358H115.301V27.5307H115.491V27.6256H115.68V27.7205H115.775V27.8153H115.965V27.9102H116.155V28.0051H116.25V28.1H116.439V28.1949H116.629V28.2898H116.819V28.3847H116.914V28.4796H117.104V28.5744H117.293V28.6693H117.483V28.7642H117.578V28.8591H117.768V28.954H117.958V29.0489H118.052V29.1438H118.242V29.2387H118.432V29.3335H118.622V29.4284H118.717V29.5233H118.906V29.6182H119.096V29.7131H119.286V29.808H119.381V29.9029H119.571V29.9978H119.76V30.0927H119.855V30.1875H120.045V30.2824H120.235V30.3773H120.425V30.4722H120.52V30.5671H120.709V30.662H120.899V30.7569H121.089V30.8518H121.184V30.9466H121.374V31.0415H121.563V31.1364H121.753V31.2313H121.848V31.3262H122.038V31.4211H122.228V31.516H122.322V31.6109H122.512V31.7057H122.702V31.8006H122.892V31.8955H122.987V31.9904H123.176V32.0853H123.366V32.1802H123.556V32.2751H123.651V32.3699H123.841V32.4648H124.03V32.5597H124.125V32.6546H124.315V32.7495H124.505V32.8444H124.695V32.9393H124.79V33.0342H124.979V33.1291H125.169V33.2239H125.359V33.3188H125.454V33.4137H125.644V33.5086H125.833V33.6035H125.928V33.6984H126.118V33.7933H126.308V33.8882H126.497V33.983H126.592V34.0779H126.782V34.1728H126.972V34.2677H127.162V34.3626H127.257V34.4575H127.446V34.5524H127.636V34.6473H127.731V34.7421H127.921V34.837H128.111V34.9319H128.3V35.0268H128.395V35.1217H128.585V35.2166H128.775V35.3115H128.965V35.4064H129.059V35.5012H129.249V35.5961H129.439V35.691H129.629V35.7859H129.724V35.8808H129.913V35.9757H130.103V36.0706H130.198V36.1655H130.388V36.2603H130.578V36.3552H130.767V36.4501H130.862V36.545H131.052V36.6399H131.242V36.7348H131.432V36.8297H131.527V36.9246H131.716V37.0194H131.906V37.1143H132.001V37.2092H132.191V37.3041H132.381V37.399H132.57V37.4939H132.665V37.5888H132.855V37.6837H133.045V37.7785H133.14V37.8734H133.235V37.9683H133.424V38.0632H133.519V38.1581H133.614V38.3479H133.709V38.4428H133.804V38.5377H133.899V38.6325H133.994V38.8223H134.089V38.9172H134.183V39.107H134.278V39.3916H134.373V39.5814H134.468V39.8661H134.563V40.2456H134.658V97.2731H134.563V97.6526H134.468V97.9373H134.373V98.1271H134.278V98.3169H134.183V98.5066H134.089V98.6964H133.994V98.7913H133.899V98.9811H133.804V99.076H133.709V99.1708H133.614V99.2657H133.519V99.3606H133.424V99.4555H133.329V99.5504H133.235V99.6453H133.045V99.7402H132.95V99.8351H132.855V99.9299H132.665V100.025H132.475V100.12H132.286V100.215H132.001V100.309H131.716V100.404H131.242V100.499H110.556V100.404H110.082V100.309H109.797V100.215H109.607V100.309H109.513V100.404H109.418V100.499H109.323V100.594H109.228V100.689H109.133V100.784H109.038V100.879H108.943V100.974H108.848V101.069H108.754V101.163H108.659V101.258H108.564V101.353H108.469V101.448H108.374V101.543H108.279V101.638H108.184V101.733H108.089V101.828H107.994V101.923H107.9V102.017H107.805V102.302H107.9V102.871H107.994V124.411H107.9V124.885H107.805V125.265H107.71V125.455H107.615V125.644H107.52V125.834H107.425V126.024H107.33V126.119H107.235V126.214H107.14V126.309H107.046V126.404H106.951V126.498H106.856V126.593H106.761V126.688H106.666V126.783H106.571V126.878H106.381V126.973H106.192V127.068H106.002V127.163H105.812V127.258H105.527V127.352H104.958V127.447H83.3236V127.352H82.8492V127.258H82.5645V127.163H82.2799V127.068H82.0901V126.973H81.9003V126.878H81.8054V126.783H81.6156V126.688H81.5208V126.593H81.4259V126.498H81.331V126.404H81.2361V126.309H81.1412V126.214H81.0463V126.024H80.9514V125.929H80.8565V125.739H80.7617V125.55H80.6668V125.455H80.5719V125.17H80.477V124.791H80.3821V102.492H80.477V102.112H80.5719V101.828H80.6668V101.638H80.7617V101.353H80.6668V101.258H80.5719V101.163H80.477V101.069H80.2872V100.974H80.1923V100.879H80.0974V100.784H80.0026V100.689H79.9077V100.594H79.8128V100.499H79.7179V100.404H79.623V100.309H79.5281V100.215H79.4332V100.12H79.3383V100.025H79.2435V99.9299H79.1486V99.8351H79.0537V99.7402H78.9588V99.6453H78.8639V99.5504H78.769V99.4555H78.6741V99.3606H78.5792V99.2657H78.4844V99.1708H78.3895V99.076H78.2946V98.9811H78.1997V98.8862H78.1048V98.7913H78.0099V98.6964H77.915V98.6015H77.8201V98.5066H77.6304V98.4117H77.5355V98.3169H77.4406V98.222H77.3457V98.1271H77.2508V98.0322H77.1559V97.9373H77.061V97.8424H76.9661V97.7475H76.8713V97.6526H76.7764V97.5578H76.6815V97.4629H76.5866V97.368H76.4917V97.2731H76.3968V97.1782H76.3019V97.0833H76.207V96.9884H76.1122V96.8935H76.0173V96.7987H75.9224V96.7038H75.8275V96.6089H75.7326V96.514H75.6377V96.4191H75.5428V96.3242H75.4479V96.2293H75.3531V96.1344H75.2582V96.0396H75.1633V95.9447H75.0684V95.8498H74.8786V95.7549H74.7837V95.66H74.6888V95.5651H74.594V95.4702H74.4991V95.3753H74.4042V95.2805H74.3093V95.1856H74.2144V95.0907H74.1195V94.9958H74.0246V94.9009H73.9297V94.806H73.8349V94.7111H73.74V94.6162H73.6451V94.5214H73.5502V94.4265H73.4553V94.3316H73.3604V94.2367H73.2655V94.1418H73.1706V94.0469H73.0758V93.952H72.9809V93.8571H72.886V93.7622H72.7911V93.6674H72.6962V93.5725H72.6013V93.4776H72.5064V93.3827H72.4115V93.2878H72.2218V93.1929H72.1269V93.098H72.032V93.0031H71.9371V92.9083H71.8422V92.8134H71.7473V92.7185H71.6524V92.6236H71.5576V92.5287H71.4627V92.4338H71.3678V92.3389H71.2729V92.244H71.178V92.1492H71.0831V92.0543H70.9882V91.9594H70.8933V91.8645H70.7985V91.7696H70.7036V91.6747H70.6087V91.5798H70.5138V91.4849H70.4189V91.3901H70.324V91.2952H70.2291V91.2003H70.1342V91.1054H70.0394V91.0105H69.9445V90.9156H69.8496V90.8207H69.7547V90.7258H69.6598V90.631H69.47V90.5361H69.3751V90.4412H69.2803V90.3463H69.1854V90.2514H69.0905V90.1565H68.9956V90.0616H68.9007V89.9667H68.8058V89.8719H68.7109V89.777H68.616V89.6821H68.5211V89.5872H68.4263V89.4923H68.3314V89.3974H68.2365V89.3025H68.1416V89.2076H68.0467V89.1128H67.9518V89.0179H67.8569V88.923H67.762V88.8281H67.6672V88.7332H67.5723V88.6383H67.4774V88.5434H67.3825V88.4485H67.2876V88.3537H67.1927V88.2588H67.0978V88.1639H67.0029V88.069H66.8132V87.9741H66.7183V87.8792H66.6234V87.7843H66.5285V87.6894H66.4336V87.5946H66.3387V87.4997H66.2439V87.4048H66.149V87.3099H66.0541V87.215H65.9592V87.1201H65.8643V87.0252H65.7694V86.9303H65.295V87.0252H64.8205V87.1201H43.0913V87.0252H42.5219V87.1201H42.3322V87.215H42.2373V87.3099H42.1424V87.4048H42.0475V87.4997H41.9526V87.5946H41.8577V87.6894H41.7628V87.7843H41.6679V87.8792H41.5731V87.9741H41.4782V88.069H41.3833V88.1639H41.2884V88.2588H41.1935V88.3537H41.0986V88.4485H41.0037V88.5434H40.9088V88.6383H40.814V88.7332H40.7191V88.8281H40.6242V88.923H40.5293V89.0179H40.4344V89.1128H40.3395V89.2076H40.2446V89.3025H40.1497V89.3974H40.0549V89.4923H39.96V89.5872H39.8651V89.6821H39.7702V89.777H39.5804V89.8719H39.4855V89.9667H39.3906V90.0616H39.2958V90.1565H39.2009V90.2514H39.106V90.3463H39.0111V90.4412H38.9162V90.5361H38.8213V90.631H38.7264V90.7258H38.6315V90.8207H38.5367V90.9156H38.4418V91.0105H38.3469V91.1054H38.252V91.2003H38.1571V91.2952H38.0622V91.3901H37.9673V91.4849H37.8724V91.5798H37.7776V91.6747H37.6827V91.7696H37.5878V91.8645H37.4929V91.9594H37.398V92.0543H37.3031V92.1492H37.2082V92.244H37.1133V92.3389H37.0185V92.4338H36.8287V92.5287H36.7338V92.6236H36.6389V92.7185H36.544V92.8134H36.4491V92.9083H36.3542V93.0031H36.2594V93.098H36.1645V93.1929H36.0696V93.2878H35.9747V93.3827H35.8798V93.4776H35.7849V93.5725H35.69V93.6674H35.5951V93.7622H35.5003V93.8571H35.4054V93.952H35.3105V94.0469H35.2156V94.1418H35.1207V94.2367H35.0258V94.3316H34.9309V94.4265H34.836V94.5214H34.7411V94.6162H34.6463V94.7111H34.5514V94.806H34.4565V94.9009H34.3616V94.9958H34.1718V95.0907H34.0769V95.1856H33.9821V95.2805H33.8872V95.3753H33.7923V95.4702H33.6974V95.5651H33.6025V95.66H33.5076V95.7549H33.4127V95.8498H33.3178V95.9447H33.2229V96.0396H33.1281V96.1344H33.0332V96.2293H32.9383V96.3242H32.8434V96.4191H32.7485V96.514H32.6536V96.6089H32.5587V96.7038H32.4638V96.7987H32.369V96.8935H32.2741V96.9884H32.1792V97.0833H32.0843V97.1782H31.9894V97.2731H31.8945V97.368H31.7996V97.4629H31.7047V97.5578H31.6099V97.6526H31.4201V97.7475H31.3252V97.8424H31.2303V97.9373H31.1354V98.0322H31.0405V98.1271H30.9456V98.222H30.8508V98.3169H30.7559V98.4117H30.661V98.5066H30.5661V98.6015H30.4712V98.6964H30.3763V98.7913H30.2814V98.8862H30.1865V98.9811H30.0917V99.076H29.9968V99.1708H29.9019V99.2657H29.807V99.3606H29.7121V99.4555H29.6172V99.5504H29.5223V99.6453H29.4274V99.7402H29.3326V99.8351H29.2377V99.9299H29.1428V100.025H29.0479V100.12H28.953V100.215H28.7632V100.309H28.6683V100.404H28.5735V100.499H28.4786V100.594H28.3837V100.689H28.2888V100.784H28.1939V100.879H28.099V100.974H28.0041V101.069H27.9092V101.163H27.8144V101.258H27.7195V101.353H27.6246V101.448H27.5297V101.543H27.4348V101.638H27.3399V101.733H27.245V101.828H27.3399V102.112H27.4348V102.397H27.5297V124.791H27.4348V125.17H27.3399V125.455H27.245V125.644H27.1501V125.739H27.0553V125.929H26.9604V126.024H26.8655V126.214H26.7706V126.309H26.6757V126.404H26.5808V126.498H26.4859V126.593H26.391V126.688H26.2962V126.783H26.1064V126.878H26.0115V126.973H25.8217V127.068H25.6319V127.163H25.3473V127.258H25.0626V127.352H24.5882V127.447" fill="url(#principal_paint0_linear)"/>
</g>
<mask id="principal_mask1" style="mask-type:luminance" maskUnits="userSpaceOnUse" x="162" y="30" width="260" height="57">
<path d="M172.805 53.8099H207.663V31.4353H217.593V86.1806H207.663V63.8046H172.805V86.1806H162.875V31.4353H172.805V53.8099ZM286.659 64.0393C286.659 67.3753 286.085 70.4379 284.939 73.2393C283.792 76.0419 282.203 78.4526 280.169 80.4846C278.124 82.5313 275.713 84.1086 272.924 85.2419C270.148 86.3753 267.112 86.9486 263.828 86.9486H250.38C247.096 86.9486 244.06 86.3753 241.257 85.2419C238.456 84.1086 236.045 82.5313 234.012 80.4846C231.967 78.4526 230.376 76.0419 229.217 73.2393C228.057 70.4379 227.484 67.3753 227.484 64.0393V53.5753C227.484 50.2659 228.057 47.2033 229.217 44.3886C230.376 41.5873 231.967 39.1633 234.012 37.1433C236.045 35.1233 238.456 33.5326 241.257 32.3873C244.06 31.2393 247.096 30.6659 250.38 30.6659H263.828C267.112 30.6659 270.148 31.2393 272.924 32.3873C275.713 33.5326 278.124 35.1233 280.169 37.1433C282.203 39.1633 283.792 41.5873 284.939 44.3886C286.085 47.2033 286.659 50.2659 286.659 53.5753V64.0393ZM276.729 53.5753C276.729 51.6206 276.416 49.8353 275.791 48.2459C275.165 46.6566 274.293 45.3006 273.159 44.1673C272.025 43.0326 270.669 42.1606 269.067 41.5353C267.477 40.9086 265.731 40.5966 263.828 40.5966H250.38C248.451 40.5966 246.692 40.9086 245.103 41.5353C243.512 42.1606 242.144 43.0326 240.997 44.1673C239.851 45.3006 238.964 46.6566 238.339 48.2459C237.713 49.8353 237.4 51.6206 237.4 53.5753V64.0393C237.4 65.9939 237.713 67.7673 238.339 69.3566C238.964 70.946 239.851 72.3139 240.997 73.4486C242.144 74.5819 243.512 75.4553 245.103 76.0806C246.692 76.7059 248.451 77.0179 250.38 77.0179H263.751C265.679 77.0179 267.439 76.7059 269.04 76.0806C270.631 75.4553 271.999 74.5819 273.133 73.4486C274.279 72.3139 275.165 70.946 275.791 69.3566C276.416 67.7673 276.729 65.9939 276.729 64.0393V53.5753ZM360.181 86.1806H350.187V53.5753L332.581 84.5379C332.152 85.3326 331.539 85.9193 330.769 86.3366C329.988 86.7393 329.153 86.9486 328.268 86.9486C327.395 86.9486 326.587 86.7393 325.844 86.3366C325.088 85.9193 324.501 85.3326 324.072 84.5379L306.388 53.5753V86.1806H296.459V35.6699C296.459 34.5233 296.797 33.5073 297.475 32.6206C298.152 31.722 299.039 31.122 300.133 30.8233C300.668 30.6926 301.203 30.6539 301.736 30.6926C302.271 30.7313 302.779 30.8353 303.273 31.0313C303.769 31.2273 304.225 31.4873 304.629 31.8393C305.047 32.1779 305.385 32.5939 305.659 33.0766L328.268 72.3539L350.864 33.0766C351.451 32.1126 352.259 31.4219 353.288 31.0179C354.317 30.6019 355.4 30.5366 356.52 30.8233C357.588 31.122 358.461 31.722 359.152 32.6206C359.843 33.5073 360.181 34.5233 360.181 35.6699V86.1806ZM421.181 86.1806H385.371C384.003 86.1806 382.504 85.9326 380.875 85.4499C379.247 84.9673 377.735 84.1726 376.34 83.0646C374.959 81.9579 373.799 80.5246 372.873 78.7513C371.936 76.9793 371.48 74.8166 371.48 72.2486V36.4393C371.48 35.7486 371.609 35.0966 371.857 34.4846C372.119 33.8726 372.457 33.3379 372.913 32.8819C373.356 32.4259 373.877 32.0739 374.491 31.8139C375.103 31.5659 375.767 31.4353 376.484 31.4353H421.181V41.3513H381.409V72.2486C381.409 73.5393 381.748 74.5299 382.439 75.2206C383.117 75.9113 384.133 76.2499 385.449 76.2499H421.181V86.1806Z" fill="white"/>
</mask>
<g mask="url(#principal_mask1)">
<path d="M172.805 53.8099H207.663V31.4353H217.593V86.1806H207.663V63.8046H172.805V86.1806H162.875V31.4353H172.805V53.8099ZM286.659 64.0393C286.659 67.3753 286.085 70.4379 284.939 73.2393C283.792 76.0419 282.203 78.4526 280.169 80.4846C278.124 82.5313 275.713 84.1086 272.924 85.2419C270.148 86.3753 267.112 86.9486 263.828 86.9486H250.38C247.096 86.9486 244.06 86.3753 241.257 85.2419C238.456 84.1086 236.045 82.5313 234.012 80.4846C231.967 78.4526 230.376 76.0419 229.217 73.2393C228.057 70.4379 227.484 67.3753 227.484 64.0393V53.5753C227.484 50.2659 228.057 47.2033 229.217 44.3886C230.376 41.5873 231.967 39.1633 234.012 37.1433C236.045 35.1233 238.456 33.5326 241.257 32.3873C244.06 31.2393 247.096 30.6659 250.38 30.6659H263.828C267.112 30.6659 270.148 31.2393 272.924 32.3873C275.713 33.5326 278.124 35.1233 280.169 37.1433C282.203 39.1633 283.792 41.5873 284.939 44.3886C286.085 47.2033 286.659 50.2659 286.659 53.5753V64.0393ZM276.729 53.5753C276.729 51.6206 276.416 49.8353 275.791 48.2459C275.165 46.6566 274.293 45.3006 273.159 44.1673C272.025 43.0326 270.669 42.1606 269.067 41.5353C267.477 40.9086 265.731 40.5966 263.828 40.5966H250.38C248.451 40.5966 246.692 40.9086 245.103 41.5353C243.512 42.1606 242.144 43.0326 240.997 44.1673C239.851 45.3006 238.964 46.6566 238.339 48.2459C237.713 49.8353 237.4 51.6206 237.4 53.5753V64.0393C237.4 65.9939 237.713 67.7673 238.339 69.3566C238.964 70.946 239.851 72.3139 240.997 73.4486C242.144 74.5819 243.512 75.4553 245.103 76.0806C246.692 76.7059 248.451 77.0179 250.38 77.0179H263.751C265.679 77.0179 267.439 76.7059 269.04 76.0806C270.631 75.4553 271.999 74.5819 273.133 73.4486C274.279 72.3139 275.165 70.946 275.791 69.3566C276.416 67.7673 276.729 65.9939 276.729 64.0393V53.5753ZM360.181 86.1806H350.187V53.5753L332.581 84.5379C332.152 85.3326 331.539 85.9193 330.769 86.3366C329.988 86.7393 329.153 86.9486 328.268 86.9486C327.395 86.9486 326.587 86.7393 325.844 86.3366C325.088 85.9193 324.501 85.3326 324.072 84.5379L306.388 53.5753V86.1806H296.459V35.6699C296.459 34.5233 296.797 33.5073 297.475 32.6206C298.152 31.722 299.039 31.122 300.133 30.8233C300.668 30.6926 301.203 30.6539 301.736 30.6926C302.271 30.7313 302.779 30.8353 303.273 31.0313C303.769 31.2273 304.225 31.4873 304.629 31.8393C305.047 32.1779 305.385 32.5939 305.659 33.0766L328.268 72.3539L350.864 33.0766C351.451 32.1126 352.259 31.4219 353.288 31.0179C354.317 30.6019 355.4 30.5366 356.52 30.8233C357.588 31.122 358.461 31.722 359.152 32.6206C359.843 33.5073 360.181 34.5233 360.181 35.6699V86.1806ZM421.181 86.1806H385.371C384.003 86.1806 382.504 85.9326 380.875 85.4499C379.247 84.9673 377.735 84.1726 376.34 83.0646C374.959 81.9579 373.799 80.5246 372.873 78.7513C371.936 76.9793 371.48 74.8166 371.48 72.2486V36.4393C371.48 35.7486 371.609 35.0966 371.857 34.4846C372.119 33.8726 372.457 33.3379 372.913 32.8819C373.356 32.4259 373.877 32.0739 374.491 31.8139C375.103 31.5659 375.767 31.4353 376.484 31.4353H421.181V41.3513H381.409V72.2486C381.409 73.5393 381.748 74.5299 382.439 75.2206C383.117 75.9113 384.133 76.2499 385.449 76.2499H421.181V86.1806Z" fill="white"/>
</g>
<path d="M461.724 50.8512L478.284 31.5059H491.696L468.379 58.6672L491.541 85.6859H478.207L461.724 66.4952L461.431 66.8379L456.895 72.1766H456.872L445.333 85.6859H445.332L437.456 94.9552L424.663 110.007L419.912 115.597H406.539L419.331 100.545L421.899 97.5233L431.959 85.6859L431.968 85.6752L434.691 82.4712L444.751 70.6326H444.832L455.041 58.6193L431.881 31.5059H445.177L461.724 50.8512Z" fill="white"/>
<path d="M159.832 117.169L169.603 101.937H173.845L177.523 117.169H173.236L170.516 103.982H172.212L164.38 117.169H159.832ZM195.945 117.473C194.421 117.473 193.149 117.178 192.127 116.591C191.104 116.003 190.383 115.177 189.961 114.111C189.54 113.045 189.468 111.801 189.744 110.379L191.441 101.937H195.749L194.073 110.314C193.827 111.533 193.921 112.435 194.357 113.022C194.792 113.61 195.495 113.903 196.468 113.903C197.367 113.903 198.085 113.629 198.621 113.078C199.159 112.526 199.557 111.605 199.819 110.314L201.493 101.937H205.736L204.017 110.575C203.568 112.838 202.669 114.553 201.32 115.721C199.971 116.889 198.179 117.473 195.945 117.473ZM218.545 117.169L220.917 105.353H216.24L216.936 101.937H230.579L229.883 105.353H225.227L222.855 117.169H218.545ZM247.392 117.473C245.825 117.473 244.476 117.186 243.344 116.613C242.213 116.039 241.343 115.253 240.733 114.251C240.124 113.251 239.819 112.09 239.819 110.77C239.819 109.437 240.052 108.214 240.516 107.103C240.98 105.994 241.633 105.03 242.473 104.21C243.316 103.39 244.32 102.757 245.488 102.306C246.655 101.857 247.936 101.631 249.328 101.631C250.895 101.631 252.244 101.918 253.376 102.491C254.507 103.063 255.377 103.851 255.987 104.851C256.596 105.853 256.9 107.014 256.9 108.334C256.9 109.669 256.668 110.89 256.204 111.999C255.74 113.109 255.087 114.074 254.245 114.894C253.404 115.714 252.4 116.349 251.232 116.798C250.064 117.247 248.784 117.473 247.392 117.473ZM247.761 113.903C248.516 113.903 249.187 113.766 249.775 113.49C250.361 113.215 250.861 112.827 251.276 112.326C251.689 111.826 252.004 111.257 252.221 110.618C252.44 109.981 252.548 109.305 252.548 108.594C252.548 107.913 252.407 107.318 252.124 106.81C251.841 106.303 251.436 105.907 250.905 105.625C250.376 105.342 249.727 105.201 248.959 105.201C248.219 105.201 247.551 105.338 246.956 105.614C246.361 105.89 245.857 106.277 245.444 106.778C245.031 107.278 244.716 107.847 244.497 108.486C244.28 109.123 244.172 109.798 244.172 110.509C244.172 111.177 244.313 111.769 244.596 112.282C244.879 112.798 245.284 113.197 245.815 113.479C246.344 113.762 246.993 113.903 247.761 113.903ZM267.817 117.169L270.863 101.937H274.367L278.565 112.315H276.716L284.855 101.937H288.531L285.528 117.169H281.547L283.352 107.942L284.071 107.921L278.043 115.666H276.151L272.864 107.898L273.627 107.963L271.776 117.169H267.817ZM296.988 117.169L306.759 101.937H311.001L314.679 117.169H310.392L307.672 103.982H309.369L301.536 117.169H296.988ZM334.255 117.473C332.703 117.473 331.351 117.19 330.197 116.623C329.043 116.058 328.155 115.27 327.531 114.263C326.908 113.255 326.596 112.09 326.596 110.77C326.596 109.45 326.828 108.233 327.292 107.115C327.756 105.998 328.409 105.03 329.251 104.21C330.092 103.39 331.096 102.757 332.264 102.306C333.432 101.857 334.727 101.631 336.148 101.631C337.555 101.631 338.803 101.878 339.891 102.371C340.979 102.865 341.791 103.575 342.328 104.503L339.216 106.985C338.868 106.403 338.415 105.962 337.856 105.657C337.297 105.353 336.633 105.201 335.865 105.201C335.125 105.201 334.455 105.33 333.852 105.591C333.251 105.853 332.732 106.223 332.296 106.702C331.861 107.181 331.528 107.742 331.296 108.387C331.064 109.034 330.948 109.734 330.948 110.487C330.948 111.169 331.096 111.769 331.393 112.282C331.691 112.798 332.119 113.197 332.677 113.479C332.336 113.762 333.9 113.903 334.668 113.903C335.351 113.903 336.007 113.766 336.637 113.49C337.269 113.215 337.852 112.765 338.389 112.142L340.935 114.643C340.079 115.673 339.093 116.402 337.976 116.83C336.859 117.258 335.619 117.473 334.255 117.473ZM350.155 117.169L359.924 101.937H364.167L367.844 117.169H363.557L360.837 103.982H362.535L354.703 117.169H350.155ZM387.333 117.473C385.767 117.473 384.417 117.186 383.285 116.613C382.155 116.039 381.284 115.253 380.676 114.251C380.067 113.251 379.761 112.09 379.761 110.77C379.761 109.437 379.993 108.214 380.457 107.103C380.921 105.994 381.575 105.03 382.416 104.21C383.257 103.39 384.261 102.757 385.429 102.306C386.597 101.857 387.877 101.631 389.269 101.631C390.836 101.631 392.185 101.918 393.317 102.491C394.448 103.063 395.319 103.851 395.928 104.851C396.537 105.853 396.843 107.014 396.843 108.334C396.843 109.669 396.609 110.89 396.145 111.999C395.681 113.109 395.028 114.074 394.188 114.894C393.347 115.714 392.341 116.349 391.173 116.798C390.007 117.247 388.727 117.473 387.333 117.473ZM387.703 113.903C388.457 113.903 389.128 113.766 389.716 113.49C390.304 113.215 390.804 112.827 391.217 112.326C391.631 111.826 391.947 111.257 392.164 110.618C392.381 109.981 392.491 109.305 392.491 108.594C392.491 107.913 392.349 107.318 392.067 106.81C391.783 106.303 391.377 105.907 390.848 105.625C390.317 105.342 389.669 105.201 388.9 105.201C388.16 105.201 387.493 105.338 386.899 105.614C386.303 105.89 385.8 106.277 385.385 106.778C384.972 107.278 384.657 107.847 384.439 108.486C384.221 109.123 384.113 109.798 384.113 110.509C384.113 111.177 384.255 111.769 384.537 112.282C384.82 112.798 385.227 113.197 385.756 113.479C386.285 113.762 386.935 113.903 387.703 113.903Z" fill="white"/>
<path fill-rule="evenodd" clip-rule="evenodd" d="M385.371 60.1553C388.148 60.6513 390.807 61.9713 392.953 64.1166C395.099 66.2633 396.42 68.9219 396.916 71.6992H393.265C392.819 69.8472 391.872 68.0899 390.425 66.6446C388.98 65.1993 387.224 64.2526 385.371 63.8046V60.1553Z" fill="white"/>
<path fill-rule="evenodd" clip-rule="evenodd" d="M397.991 59.0793C394.452 55.5406 389.983 53.5006 385.371 52.9553V56.5606C389.063 57.0859 392.621 58.7673 395.463 61.6086C398.303 64.4473 399.984 68.0072 400.509 71.6992H404.115C403.571 67.0872 401.529 62.6179 397.991 59.0793Z" fill="white"/>
<path fill-rule="evenodd" clip-rule="evenodd" d="M385.371 67.5379C386.292 67.8846 387.157 68.4299 387.899 69.1713C388.64 69.9139 389.184 70.7779 389.532 71.6992H385.371V67.5379Z" fill="white"/>
<path fill-rule="evenodd" clip-rule="evenodd" d="M358.891 97.3206H368.745L366.131 100.266H356.276L358.891 97.3206Z" fill="white"/>
<path fill-rule="evenodd" clip-rule="evenodd" d="M333.079 119.269L337.205 115.142L333.273 114.909L329.147 119.035L333.079 119.269Z" fill="white"/>
<defs>
<linearGradient id="principal_paint0_linear" x1="-4.93611e-05" y1="113.616" x2="123.514" y2="32.3045" gradientUnits="userSpaceOnUse">
<stop stop-color="#0F2D3A"/>
<stop offset="1" stop-color="#2F8BA6"/>
</linearGradient>
</defs>
</svg>

